<?xml version="1.0" encoding="utf-8"?>
<svg version="1.1" xmlns:xlink="http://www.w3.org/1999/xlink" width="18px" height="18px" xmlns="http://www.w3.org/2000/svg">
  <g transform="matrix(1 0 0 1 -204 -337 )">
    <path d="M 17.9808374733854 0.683948863636363  C 18.0106458481192 0.858664772727271  17.9829666430092 1.02698863636364  17.8977998580554 1.18892045454545  L 9.72178850248403 17.5525568181818  C 9.57700496806246 17.8508522727273  9.33427963094393 18  8.99361249112846 18  C 8.95102909865153 18  8.88715400993613 17.9914772727273  8.80198722498226 17.9744318181818  C 8.61462029808375 17.9318181818182  8.46344925479063 17.8359375  8.34847409510291 17.6867897727273  C 8.23349893541519 17.5376420454545  8.17601135557133 17.3693181818182  8.17601135557133 17.1818181818182  L 8.17601135557133 9.81818181818182  L 0.817601135557133 9.81818181818182  C 0.630234208658623 9.81818181818182  0.462029808374734 9.76065340909091  0.312987934705465 9.64559659090909  C 0.163946061036196 9.53053977272727  0.0681334279630944 9.37926136363636  0.0255500354861604 9.19176136363637  C -0.0170333569907736 9.00426136363636  0 8.82528409090909  0.0766501064584812 8.65482954545455  C 0.153300212916962 8.484375  0.276792051100071 8.35653409090909  0.447125621007807 8.27130681818182  L 16.7991483321505 0.0894886363636369  C 16.9098651525905 0.0298295454545443  17.0333569907736 0  17.1696238466998 0  C 17.3995741660752 0  17.5911994322214 0.0809659090909074  17.7444996451384 0.242897727272728  C 17.8722498225692 0.362215909090907  17.9510290986515 0.509232954545453  17.9808374733854 0.683948863636363  Z " fill-rule="nonzero" fill="#909090" stroke="none" transform="matrix(1 0 0 1 204 337 )" />
  </g>
</svg>