<?xml version="1.0" encoding="utf-8"?>
<svg version="1.1" xmlns:xlink="http://www.w3.org/1999/xlink" width="16px" height="13px" xmlns="http://www.w3.org/2000/svg">
  <g transform="matrix(1 0 0 1 -57 -226 )">
    <path d="M 13.7001239157373 7.42712392829306  C 13.7067327550599 7.44063393089114  13.7100371747212 7.46089893478826  13.7100371747212 7.48791893998441  L 13.7100371747212 12.3515198752923  C 13.7100371747212 12.5271499090673  13.6472532011565 12.6791374382957  13.5216852540273 12.8074824629774  C 13.396117306898 12.9358274876591  13.2474184221396 13  13.0755885997522 13  L 9.26889714993804 13  L 9.26889714993804 9.1091192517537  L 6.73110285006196 9.1091192517537  L 6.73110285006196 13  L 2.92441140024783 13  C 2.75258157786039 13  2.60388269310202 12.9358274876591  2.47831474597274 12.8074824629774  C 2.35274679884345 12.6791374382957  2.28996282527881 12.5271499090673  2.28996282527881 12.3515198752923  L 2.28996282527881 7.48791893998441  C 2.28996282527881 7.48116393868537  2.29161503510946 7.47103143673681  2.29491945477076 7.45752143413874  C 2.29822387443205 7.44401143154066  2.2998760842627 7.4338789295921  2.2998760842627 7.42712392829306  L 8 2.62431800467654  L 13.7001239157373 7.42712392829306  Z M 15.9900867410161 6.55066250974279  C 15.9966955803387 6.64185502727981  15.9735646427096 6.72122629254352  15.9206939281289 6.78877630553391  L 15.3060718711276 7.5385814497272  C 15.2532011565469 7.59937646141855  15.1838083436596 7.63652896856326  15.0978934324659 7.65003897116134  L 15.0681536555142 7.65003897116134  C 14.9822387443205 7.65003897116134  14.9128459314333 7.6263964666147  14.8599752168525 7.57911145752143  L 8 1.73265783320343  L 1.14002478314746 7.57911145752143  C 1.06071871127633 7.63315146791374  0.981412639405205 7.65679397246038  0.902106567534077 7.65003897116134  C 0.816191656340355 7.63652896856326  0.746798843453119 7.59937646141855  0.693928128872367 7.5385814497272  L 0.0793060718711276 6.78877630553391  C 0.0264353572903759 6.72122629254352  0.00330441966129701 6.64185502727981  0.00991325898389095 6.55066250974279  C 0.016522098306485 6.45946999220577  0.0528707145807518 6.3868537282411  0.118959107806691 6.33281371784879  L 7.24659231722429 0.26344505066251  C 7.45807517554729 0.0878150168875019  7.70921106980587 0  8 0  C 8.29078893019414 0  8.54192482445271 0.0878150168875019  8.75340768277571 0.26344505066251  L 11.1722428748451 2.33047544816835  L 11.1722428748451 0.354637568199532  C 11.1722428748451 0.260067550012989  11.2019826517968 0.182385035074045  11.2614622057001 0.121590023382697  C 11.3209417596035 0.0607950116913487  11.3969434118133 0.0303975058456744  11.4894671623296 0.0303975058456744  L 13.3928128872367 0.0303975058456744  C 13.485336637753 0.0303975058456744  13.5613382899628 0.0607950116913487  13.6208178438662 0.121590023382697  C 13.6802973977695 0.182385035074045  13.7100371747212 0.260067550012989  13.7100371747212 0.354637568199532  L 13.7100371747212 4.48869836321122  L 15.8810408921933 6.33281371784879  C 15.9471292854192 6.3868537282411  15.9834779016935 6.45946999220577  15.9900867410161 6.55066250974279  Z " fill-rule="nonzero" fill="#999999" stroke="none" transform="matrix(1 0 0 1 57 226 )" />
  </g>
</svg>