<?xml version="1.0" encoding="utf-8"?>
<svg version="1.1" xmlns:xlink="http://www.w3.org/1999/xlink" width="21px" height="17px" xmlns="http://www.w3.org/2000/svg">
  <g transform="matrix(1 0 0 1 -361 -110 )">
    <path d="M 15.3984375 3.07665010645848  C 16.1328125 4.02578660988881  16.5 5.05938017506506  16.5 6.17743080198722  C 16.5 7.29548142890939  16.1328125 8.32907499408564  15.3984375 9.27821149751597  C 14.6640625 10.2273480009463  13.662109375 10.977407144547  12.392578125 11.528388928318  C 11.123046875 12.0793707120889  9.7421875 12.3548616039745  8.25 12.3548616039745  C 7.578125 12.3548616039745  6.890625 12.2905133664537  6.1875 12.1618168914124  C 5.21875 12.8696475041401  4.1328125 13.3844334043057  2.9296875 13.7061745919092  C 2.6484375 13.7785663591199  2.3125 13.8429145966406  1.921875 13.8992193044713  L 1.88671875 13.8992193044713  C 1.80078125 13.8992193044713  1.720703125 13.8670451857109  1.646484375 13.8026969481902  C 1.572265625 13.7383487106695  1.52734375 13.6538916489236  1.51171875 13.5493257629524  C 1.50390625 13.5251951738822  1.5 13.4990537023894  1.5 13.4709013484741  C 1.5 13.4427489945588  1.501953125 13.416607523066  1.505859375 13.3924769339957  C 1.509765625 13.3683463449255  1.517578125 13.3442157558552  1.529296875 13.320085166785  L 1.55859375 13.2597586941093  C 1.55859375 13.2597586941093  1.572265625 13.2376389874616  1.599609375 13.1933995741661  C 1.626953125 13.1491601608706  1.642578125 13.1290513366454  1.646484375 13.1330731014904  C 1.650390625 13.1370948663355  1.66796875 13.1169860421102  1.69921875 13.0727466288148  C 1.73046875 13.0285072155193  1.74609375 13.0104092737166  1.74609375 13.0184528034067  C 1.78515625 12.9701916252661  1.875 12.86964750414  2.015625 12.7168204400284  C 2.15625 12.5639933759167  2.2578125 12.4453513129879  2.3203125 12.360894251242  C 2.3828125 12.2764371894961  2.470703125 12.1598060089898  2.583984375 12.0110007097232  C 2.697265625 11.8621954104566  2.794921875 11.7073574639224  2.876953125 11.5464868701207  C 2.958984375 11.3856162763189  3.0390625 11.208658623137  3.1171875 11.0156139105749  C 2.1484375 10.4364797728886  1.38671875 9.72462739531583  0.83203125 8.88005677785664  C 0.27734375 8.03548616039745  0 7.13461083510764  0 6.17743080198722  C 0 5.05938017506506  0.3671875 4.02578660988881  1.1015625 3.07665010645848  C 1.8359375 2.12751360302815  2.837890625 1.37745445942749  4.107421875 0.826472675656495  C 5.376953125 0.275490891885498  6.7578125 0  8.25 0  C 9.7421875 0  11.123046875 0.275490891885498  12.392578125 0.826472675656495  C 13.662109375 1.37745445942749  14.6640625 2.12751360302815  15.3984375 3.07665010645848  Z M 20.12109375 6.49112845990064  C 20.70703125 7.35178613674  21 8.27679205110007  21 9.26614620298084  C 21 10.2313697657913  20.72265625 11.1342559735037  20.16796875 11.9748048261178  C 19.61328125 12.815353678732  18.8515625 13.5251951738822  17.8828125 14.1043293115685  C 17.9609375 14.2973740241306  18.041015625 14.4743316773125  18.123046875 14.6352022711143  C 18.205078125 14.796072864916  18.302734375 14.9509108114502  18.416015625 15.0997161107168  C 18.529296875 15.2485214099834  18.6171875 15.3651525904897  18.6796875 15.4496096522356  C 18.7421875 15.5340667139815  18.84375 15.6527087769103  18.984375 15.805535841022  C 19.125 15.9583629051337  19.21484375 16.0589070262598  19.25390625 16.1071682044003  C 19.26171875 16.1152117340904  19.27734375 16.1333096758931  19.30078125 16.1614620298084  C 19.32421875 16.1896143837237  19.341796875 16.2097232079489  19.353515625 16.221788502484  C 19.365234375 16.2338537970192  19.380859375 16.2539626212444  19.400390625 16.2821149751597  C 19.419921875 16.310267329075  19.43359375 16.3323870357227  19.44140625 16.3484740951029  L 19.470703125 16.4088005677786  C 19.470703125 16.4088005677786  19.478515625 16.4329311568488  19.494140625 16.4811923349894  C 19.509765625 16.5294535131299  19.51171875 16.5555949846227  19.5 16.5596167494677  C 19.48828125 16.5636385143128  19.484375 16.5897799858055  19.48828125 16.6380411639461  C 19.46484375 16.7506505796073  19.4140625 16.8391294061983  19.3359375 16.903477643719  C 19.2578125 16.9678258812396  19.171875 16.995978235155  19.078125 16.9879347054649  C 18.6875 16.9316299976343  18.3515625 16.8672817601136  18.0703125 16.7948899929028  C 16.8671875 16.4731488052993  15.78125 15.9583629051337  14.8125 15.250532292406  C 14.109375 15.3792287674474  13.421875 15.4435770049681  12.75 15.4435770049681  C 10.6328125 15.4435770049681  8.7890625 14.9127040454223  7.21875 13.8509581263307  C 7.671875 13.8831322450911  8.015625 13.8992193044713  8.25 13.8992193044713  C 9.5078125 13.8992193044713  10.71484375 13.7182398864443  11.87109375 13.3562810503903  C 13.02734375 12.9943222143364  14.05859375 12.4755145493258  14.96484375 11.7998580553584  C 15.94140625 11.0598533238704  16.69140625 10.2072391767211  17.21484375 9.24201561391058  C 17.73828125 8.27679205110007  18 7.25526378045895  18 6.17743080198722  C 18 5.55807901585048  17.91015625 4.94677075940383  17.73046875 4.34350603264727  C 18.73828125 4.91459664064348  19.53515625 5.63047078306127  20.12109375 6.49112845990064  Z " fill-rule="nonzero" fill="#a2a2a2" stroke="none" transform="matrix(1 0 0 1 361 110 )" />
  </g>
</svg>