<?xml version="1.0" encoding="utf-8"?>
<svg version="1.1" xmlns:xlink="http://www.w3.org/1999/xlink" width="30px" height="30px" xmlns="http://www.w3.org/2000/svg">
  <g transform="matrix(1 0 0 1 -319 -204 )">
    <path d="M 319 204  L 349 204  L 349 234  L 319 234  L 319 204  " fill-rule="nonzero" fill="#cccccc" stroke="none" />
    <path d="M 321 206  L 347 206  L 347 232  L 321 232  L 321 206  " fill-rule="nonzero" fill="#ffffff" stroke="none" />
    <path d="M 336.85 213  C 335.59 213  334.6 212.01  334.6 210.75  C 334.6 209.49  335.59 208.5  336.85 208.5  C 338.11 208.5  339.1 209.49  339.1 210.75  C 339.1 212.01  338.11 213  336.85 213  " fill-rule="nonzero" fill="#cccccc" stroke="none" />
    <path d="M 322 231  L 322 217.8  L 328 211.8  L 336.4 216.6  L 341.2 215.4  L 346 216.6  L 346 231  L 322 231  " fill-rule="nonzero" fill="#169bd5" stroke="none" />
  </g>
</svg>