<?xml version="1.0" encoding="utf-8"?>
<svg version="1.1" xmlns:xlink="http://www.w3.org/1999/xlink" width="17px" height="9px" xmlns="http://www.w3.org/2000/svg">
  <g transform="matrix(1 0 0 1 -124 -332 )">
    <path d="M 17 4.5  C 17 7.02000000000001  15.13 9  12.75 9  L 4.25 9  C 1.86999999999999 9  0 7.02000000000001  0 4.5  C 0 1.97999999999999  1.86999999999999 0  4.25 0  L 12.75 0  C 15.13 0  17 1.97999999999999  17 4.5  Z M 9.35 8.1  L 12.75 8.1  C 14.654 8.1  16.15 6.51600000000001  16.15 4.5  C 16.15 2.48399999999999  14.654 0.9  12.75 0.9  L 9.35 0.9  L 9.35 8.1  Z " fill-rule="nonzero" fill="#909090" stroke="none" transform="matrix(1 0 0 1 124 332 )" />
  </g>
</svg>