<?xml version="1.0" encoding="utf-8"?>
<svg version="1.1" xmlns:xlink="http://www.w3.org/1999/xlink" width="18px" height="7px" xmlns="http://www.w3.org/2000/svg">
  <g transform="matrix(1 0 0 1 -124 -389 )">
    <path d="M 17.1346153846154 6.22222222222222  C 16.65 6.22222222222222  16.2692307692308 5.79444444444444  16.2692307692308 5.25  L 16.2692307692308 4.27777777777778  L 14.5384615384615 4.27764072685294  L 14.5384615384615 4.66666666666667  C 14.5384615384615 5.97333333333334  13.6246153846154 7  12.4615384615385 7  L 6.23076923076923 7  C 5.0676923076923 7  4.15384615384615 5.97333333333334  4.15384615384615 4.66666666666667  L 4.15384615384615 4.27777777777778  L 0.692307692307692 4.27777777777778  C 0.304615384615383 4.27777777777778  0 3.93555555555556  0 3.5  C 0 3.06444444444444  0.304615384615383 2.72222222222222  0.692307692307692 2.72222222222222  L 4.15384615384615 2.72222222222222  L 4.15384615384615 2.33333333333333  C 4.15384615384615 1.02666666666666  5.0676923076923 0  6.23076923076923 0  L 12.4615384615385 0  C 13.6246153846154 0  14.5384615384615 1.02666666666666  14.5384615384615 2.33333333333333  L 14.5384615384615 2.72222222222222  L 16.2692307692308 2.72222222230229  L 16.2692307692308 1.75  C 16.2692307692308 1.20555555555556  16.65 0.777777777777778  17.1346153846154 0.777777777777778  C 17.6192307692308 0.777777777777778  18 1.20555555555556  18 1.75  L 18 5.25  C 18 5.79444444444444  17.6192307692308 6.22222222222222  17.1346153846154 6.22222222222222  Z M 13.5 2.33333333333333  C 13.5 1.68  13.0430769230769 1.16666666666667  12.4615384615385 1.16666666666667  L 9 1.16666666666667  L 9 5.83333333333333  L 12.4615384615385 5.83333333333333  C 13.0430769230769 5.83333333333333  13.5 5.32  13.5 4.66666666666667  L 13.5 2.33333333333333  Z M 14.5384615384615 2.72222222222222  L 14.5384615384615 4.27764072685294  L 14.5384615384615 2.72222222222222  Z M 16.2692307692308 4.27777777445435  L 16.2692307692308 2.72222222230229  L 16.2692307692308 4.27777777445435  Z M 4.15384615384615 2.72235927314706  L 4.15384615384615 4.27777777777778  L 4.15384615384615 2.72235927314706  Z M 10.3846153846154 2.33333333333333  L 10.3846153846154 4.66666666666667  C 10.3846153846154 4.88444444444445  10.2323076923077 5.05555555555556  10.0384615384615 5.05555555555556  C 9.84461538461538 5.05555555555556  9.69230769230769 4.88444444444445  9.69230769230769 4.66666666666667  L 9.69230769230769 2.33333333333333  C 9.69230769230769 2.11555555555556  9.84461538461538 1.94444444444444  10.0384615384615 1.94444444444444  C 10.2323076923077 1.94444444444444  10.3846153846154 2.11555555555556  10.3846153846154 2.33333333333333  Z M 11.7692307692308 4.66666666666667  C 11.7692307692308 4.88444444444445  11.6169230769231 5.05555555555556  11.4230769230769 5.05555555555556  C 11.2292307692308 5.05555555555556  11.0769230769231 4.88444444444445  11.0769230769231 4.66666666666667  L 11.0769230769231 2.33333333333333  C 11.0769230769231 2.11555555555556  11.2292307692308 1.94444444444444  11.4230769230769 1.94444444444444  C 11.6169230769231 1.94444444444444  11.7692307692308 2.11555555555556  11.7692307692308 2.33333333333333  L 11.7692307692308 4.66666666666667  Z " fill-rule="nonzero" fill="#999999" stroke="none" transform="matrix(1 0 0 1 124 389 )" />
  </g>
</svg>