<?xml version="1.0" encoding="utf-8"?>
<svg version="1.1" xmlns:xlink="http://www.w3.org/1999/xlink" width="11px" height="6px" xmlns="http://www.w3.org/2000/svg">
  <g transform="matrix(1 0 0 1 -253 -436 )">
    <path d="M 10.8897795591182 4.90721649484536  C 10.9632598530394 4.97594501718213  11 5.05498281786942  11 5.14432989690722  C 11 5.23367697594502  10.9632598530394 5.3127147766323  10.8897795591182 5.38144329896907  L 10.3386773547094 5.89690721649484  C 10.2651970607882 5.96563573883161  10.1806947227789 6  10.0851703406814 6  C 9.98964595858383 6  9.90514362057448 5.96563573883161  9.83166332665331 5.89690721649484  L 5.5 1.84536082474227  L 1.16833667334669 5.89690721649484  C 1.09485637942552 5.96563573883161  1.01035404141617 6  0.914829659318637 6  C 0.819305277221109 6  0.734802939211757 5.96563573883161  0.661322645290581 5.89690721649484  L 0.110220440881764 5.38144329896907  C 0.036740146960588 5.3127147766323  0 5.23367697594502  0 5.14432989690722  C 0 5.05498281786942  0.036740146960588 4.97594501718213  0.110220440881764 4.90721649484536  L 5.24649298597194 0.103092783505155  C 5.31997327989312 0.0343642611683841  5.40447561790247 0  5.5 0  C 5.59552438209753 0  5.68002672010688 0.0343642611683841  5.75350701402806 0.103092783505155  L 10.8897795591182 4.90721649484536  Z " fill-rule="nonzero" fill="#999999" stroke="none" transform="matrix(1 0 0 1 253 436 )" />
  </g>
</svg>