<?xml version="1.0" encoding="utf-8"?>
<svg version="1.1" xmlns:xlink="http://www.w3.org/1999/xlink" width="15px" height="10px" xmlns="http://www.w3.org/2000/svg">
  <g transform="matrix(1 0 0 1 -381 -84 )">
    <path d="M 8.21028513238289 9.47311827956989  C 7.83859470468432 9.82437275985663  7.60183299389002 10  7.5 10  C 7.39816700610998 10  7.16140529531568 9.82437275985663  6.78971486761711 9.47311827956989  C 6.41802443991853 9.12186379928315  6.23217922606925 8.8984468339307  6.23217922606925 8.80286738351255  C 6.23217922606925 8.64994026284349  6.3912932790224 8.52090800477897  6.70952138492872 8.415770609319  C 7.02774949083503 8.31063321385902  7.29124236252546 8.25806451612903  7.5 8.25806451612903  C 7.70875763747454 8.25806451612903  7.97225050916497 8.31063321385902  8.29047861507128 8.415770609319  C 8.6087067209776 8.52090800477897  8.76782077393075 8.64994026284349  8.76782077393075 8.80286738351255  C 8.76782077393075 8.8984468339307  8.58197556008147 9.12186379928315  8.21028513238289 9.47311827956989  Z M 10.2762219959267 7.51971326164875  C 9.89180244399185 7.87813620071685  9.65376782077393 8.0573476702509  9.56211812627291 8.0573476702509  C 9.55193482688391 8.0573476702509  9.45010183299389 7.99761051373955  9.25661914460285 7.87813620071685  C 9.06313645621181 7.75866188769414  8.80473523421589 7.63918757467144  8.48141547861507 7.51971326164875  C 8.15809572301426 7.40023894862605  7.83095723014257 7.3405017921147  7.5 7.3405017921147  C 7.16904276985743 7.3405017921147  6.84190427698574 7.40023894862605  6.51858452138493 7.51971326164875  C 6.19526476578411 7.63918757467144  5.93813645621181 7.75866188769414  5.74719959266803 7.87813620071685  C 5.55626272912424 7.99761051373955  5.45315682281059 8.0573476702509  5.43788187372709 8.0573476702509  C 5.34623217922607 8.0573476702509  5.10819755600815 7.87813620071685  4.72377800407332 7.51971326164875  C 4.33935845213849 7.16129032258064  4.14714867617108 6.93906810035842  4.14714867617108 6.85304659498208  C 4.14714867617108 6.79091995221027  4.17260692464358 6.73596176821983  4.22352342158859 6.68817204301075  C 4.62067209775967 6.32019115890084  5.11965376782077 6.0310633213859  5.72046843177189 5.82078853046595  C 6.32128309572301 5.610513739546  6.91446028513238 5.50537634408602  7.5 5.50537634408602  C 8.08553971486762 5.50537634408602  8.67871690427699 5.610513739546  9.27953156822811 5.82078853046595  C 9.88034623217923 6.0310633213859  10.3793279022403 6.32019115890084  10.7764765784114 6.68817204301075  C 10.8273930753564 6.73596176821983  10.8528513238289 6.79091995221027  10.8528513238289 6.85304659498208  C 10.8528513238289 6.93906810035842  10.6606415478615 7.16129032258064  10.2762219959267 7.51971326164875  Z M 12.3497963340122 5.56989247311828  C 11.9679226069246 5.92831541218638  11.7337067209776 6.10752688172043  11.6471486761711 6.10752688172043  C 11.5911405295316 6.10752688172043  11.5325865580448 6.0884109916368  11.4714867617108 6.05017921146953  C 10.7790224032587 5.54838709677419  10.1374745417515 5.17921146953405  9.54684317718941 4.9426523297491  C 8.95621181262729 4.70609318996416  8.27393075356416 4.58781362007168  7.5 4.58781362007168  C 7.06720977596741 4.58781362007168  6.6331466395112 4.64038231780167  6.19781059063136 4.74551971326165  C 5.76247454175153 4.85065710872162  5.3831466395112 4.97729988052569  5.05982688391039 5.12544802867384  C 4.73650712830957 5.27359617682198  4.44755600814664 5.42174432497013  4.19297352342159 5.56989247311828  C 3.93839103869654 5.71804062126643  3.73727087576375 5.84468339307049  3.58961303462322 5.94982078853047  C 3.44195519348269 6.05495818399044  3.36303462321792 6.10752688172043  3.35285132382892 6.10752688172043  C 3.2662932790224 6.10752688172043  3.03207739307536 5.92831541218638  2.65020366598778 5.56989247311828  C 2.2683299389002 5.21146953405018  2.07739307535642 4.98924731182796  2.07739307535642 4.90322580645161  C 2.07739307535642 4.84587813620072  2.10285132382892 4.79330943847073  2.15376782077393 4.74551971326165  C 2.82586558044807 4.11469534050179  3.64052953156823 3.62485065710872  4.59775967413442 3.27598566308244  C 5.55498981670061 2.92712066905615  6.5224032586558 2.75268817204301  7.5 2.75268817204301  C 8.4775967413442 2.75268817204301  9.44501018329939 2.92712066905615  10.4022403258656 3.27598566308244  C 11.3594704684318 3.62485065710872  12.1741344195519 4.11469534050179  12.8462321792261 4.74551971326165  C 12.8971486761711 4.79330943847073  12.9226069246436 4.84587813620072  12.9226069246436 4.90322580645161  C 12.9226069246436 4.98924731182796  12.7316700610998 5.21146953405018  12.3497963340122 5.56989247311828  Z M 14.4233706720978 3.62724014336918  C 14.0389511201629 3.98566308243728  13.8034623217923 4.16487455197133  13.7169042769857 4.16487455197133  C 13.6608961303462 4.16487455197133  13.6048879837067 4.14336917562724  13.5488798370672 4.10035842293907  C 12.6374745417515 3.35005973715651  11.691700610998 2.78494623655914  10.7115580448065 2.40501792114695  C 9.73141547861507 2.02508960573477  8.66089613034623 1.83512544802867  7.5 1.83512544802867  C 6.33910386965377 1.83512544802867  5.26858452138493 2.02508960573477  4.28844195519348 2.40501792114695  C 3.30829938900204 2.78494623655914  2.36252545824847 3.35005973715651  1.45112016293279 4.10035842293907  C 1.39511201629328 4.14336917562724  1.33910386965377 4.16487455197133  1.28309572301426 4.16487455197133  C 1.19653767820774 4.16487455197133  0.961048879837067 3.98566308243728  0.57662932790224 3.62724014336918  C 0.192209775967413 3.26881720430108  0 3.04659498207885  0 2.96057347670251  C 0 2.8984468339307  0.0254582484725051 2.84348864994026  0.0763747454175153 2.79569892473118  C 1.02851323828921 1.90681003584229  2.16140529531568 1.21863799283154  3.47505091649695 0.731182795698925  C 4.78869653767821 0.243727598566308  6.13034623217923 0  7.5 0  C 8.86965376782078 0  10.2113034623218 0.243727598566308  11.5249490835031 0.731182795698925  C 12.8385947046843 1.21863799283154  13.9714867617108 1.90681003584229  14.9236252545825 2.79569892473118  C 14.9745417515275 2.84348864994026  15 2.8984468339307  15 2.96057347670251  C 15 3.04659498207885  14.8077902240326 3.26881720430108  14.4233706720978 3.62724014336918  Z " fill-rule="nonzero" fill="#000000" stroke="none" transform="matrix(1 0 0 1 381 84 )" />
  </g>
</svg>