<?xml version="1.0" encoding="utf-8"?>
<svg version="1.1" xmlns:xlink="http://www.w3.org/1999/xlink" width="21px" height="19px" xmlns="http://www.w3.org/2000/svg">
  <g transform="matrix(1 0 0 1 -194 -182 )">
    <path d="M 8.27421875 8.63792067307692  C 8.89036458333333 7.99469150641026  9.63229166666667 7.67307692307692  10.5 7.67307692307692  C 11.3677083333333 7.67307692307692  12.1096354166667 7.99469150641026  12.72578125 8.63792067307692  C 13.3419270833333 9.28114983974359  13.65 10.0556891025641  13.65 10.9615384615385  C 13.65 11.8673878205128  13.3419270833333 12.6419270833333  12.72578125 13.28515625  C 12.1096354166667 13.9283854166667  11.3677083333333 14.25  10.5 14.25  C 9.63229166666667 14.25  8.89036458333333 13.9283854166667  8.27421875 13.28515625  C 7.65807291666667 12.6419270833333  7.35 11.8673878205128  7.35 10.9615384615385  C 7.35 10.0556891025641  7.65807291666667 9.28114983974359  8.27421875 8.63792067307692  Z M 15.75 2.92307692307692  L 18.2 2.92307692307692  C 18.9729166666667 2.92307692307692  19.6328125 3.20853365384615  20.1796875 3.77944711538462  C 20.7265625 4.35036057692308  21 5.03926282051282  21 5.84615384615385  L 21 16.0769230769231  C 21 16.8838141025641  20.7265625 17.5727163461538  20.1796875 18.1436298076923  C 19.6328125 18.7145432692308  18.9729166666667 19  18.2 19  L 2.8 19  C 2.02708333333333 19  1.3671875 18.7145432692308  0.8203125 18.1436298076923  C 0.2734375 17.5727163461538  0 16.8838141025641  0 16.0769230769231  L 0 5.84615384615385  C 0 5.03926282051282  0.2734375 4.35036057692308  0.8203125 3.77944711538462  C 1.3671875 3.20853365384615  2.02708333333333 2.92307692307692  2.8 2.92307692307692  L 5.25 2.92307692307692  L 5.8078125 1.37019230769231  C 5.94635416666667 0.997195512820512  6.19973958333333 0.675580929487178  6.56796875 0.405348557692307  C 6.93619791666667 0.135116185897438  7.31354166666667 0  7.7 0  L 13.3 0  C 13.6864583333333 0  14.0638020833333 0.135116185897438  14.43203125 0.405348557692307  C 14.8002604166667 0.675580929487178  15.0536458333333 0.997195512820512  15.1921875 1.37019230769231  L 15.75 2.92307692307692  Z M 7.03828125 14.5754206730769  C 7.99713541666667 15.576422275641  9.15104166666667 16.0769230769231  10.5 16.0769230769231  C 11.8489583333333 16.0769230769231  13.0028645833333 15.576422275641  13.96171875 14.5754206730769  C 14.9205729166667 13.5744190705128  15.4 12.3697916666667  15.4 10.9615384615385  C 15.4 9.55328525641026  14.9205729166667 8.3486578525641  13.96171875 7.34765625  C 13.0028645833333 6.3466546474359  11.8489583333333 5.84615384615385  10.5 5.84615384615385  C 9.15104166666667 5.84615384615385  7.99713541666667 6.3466546474359  7.03828125 7.34765625  C 6.07942708333333 8.3486578525641  5.6 9.55328525641026  5.6 10.9615384615385  C 5.6 12.3697916666667  6.07942708333333 13.5744190705128  7.03828125 14.5754206730769  Z " fill-rule="nonzero" fill="#909090" stroke="none" transform="matrix(1 0 0 1 194 182 )" />
  </g>
</svg>