<?xml version="1.0" encoding="utf-8"?>
<svg version="1.1" xmlns:xlink="http://www.w3.org/1999/xlink" width="19px" height="19px" xmlns="http://www.w3.org/2000/svg">
  <g transform="matrix(1 0 0 1 -362 -109 )">
    <path d="M 3.45454545454545 13.8181818181818  L 5.18181818181818 13.8181818181818  L 5.18181818181818 15.5454545454545  L 3.45454545454545 15.5454545454545  L 3.45454545454545 13.8181818181818  Z M 3.45454545454545 3.45454545454545  L 5.18181818181818 3.45454545454545  L 5.18181818181818 5.18181818181818  L 3.45454545454545 5.18181818181818  L 3.45454545454545 3.45454545454545  Z M 13.8181818181818 3.45454545454545  L 15.5454545454545 3.45454545454545  L 15.5454545454545 5.18181818181818  L 13.8181818181818 5.18181818181818  L 13.8181818181818 3.45454545454545  Z M 1.72727272727273 12.0909090909091  L 1.72727272727273 17.2592329545455  L 6.90909090909091 17.2592329545455  L 6.90909090909091 12.0909090909091  L 1.72727272727273 12.0909090909091  Z M 1.72727272727273 1.72727272727273  L 1.72727272727273 6.90909090909091  L 6.90909090909091 6.90909090909091  L 6.90909090909091 1.72727272727273  L 1.72727272727273 1.72727272727273  Z M 12.0909090909091 1.72727272727273  L 12.0909090909091 6.90909090909091  L 17.2727272727273 6.90909090909091  L 17.2727272727273 1.72727272727273  L 12.0909090909091 1.72727272727273  Z M 0 10.3636363636364  L 8.63636363636364 10.3636363636364  L 8.63636363636364 19  L 0 19  L 0 10.3636363636364  Z M 13.8181818181818 17.2727272727273  L 15.5454545454545 17.2727272727273  L 15.5454545454545 19  L 13.8181818181818 19  L 13.8181818181818 17.2727272727273  Z M 17.2727272727273 17.2727272727273  L 19 17.2727272727273  L 19 19  L 17.2727272727273 19  L 17.2727272727273 17.2727272727273  Z M 17.2727272727273 10.3636363636364  L 19 10.3636363636364  L 19 15.5454545454545  L 13.8181818181818 15.5454545454545  L 13.8181818181818 13.8181818181818  L 12.0909090909091 13.8181818181818  L 12.0909090909091 19  L 10.3636363636364 19  L 10.3636363636364 10.3636363636364  L 15.5454545454545 10.3636363636364  L 15.5454545454545 12.0909090909091  L 17.2727272727273 12.0909090909091  L 17.2727272727273 10.3636363636364  Z M 0 0  L 8.63636363636364 0  L 8.63636363636364 8.63636363636364  L 0 8.63636363636364  L 0 0  Z M 10.3636363636364 0  L 19 0  L 19 8.63636363636364  L 10.3636363636364 8.63636363636364  L 10.3636363636364 0  Z " fill-rule="nonzero" fill="#b9b9b9" stroke="none" transform="matrix(1 0 0 1 362 109 )" />
  </g>
</svg>