<?xml version="1.0" encoding="utf-8"?>
<svg version="1.1" xmlns:xlink="http://www.w3.org/1999/xlink" width="21px" height="16px" xmlns="http://www.w3.org/2000/svg">
  <g transform="matrix(1 0 0 1 -353 -171 )">
    <path d="M 15.3984375 2.89567068843151  C 16.1328125 3.78897563283653  16.5 4.76176957653182  16.5 5.81405251951739  C 16.5 6.86633546250296  16.1328125 7.83912940619825  15.3984375 8.73243435060327  C 14.6640625 9.62573929500828  13.662109375 10.3316773125148  12.392578125 10.8502484031228  C 11.123046875 11.3688194937308  9.7421875 11.6281050390348  8.25 11.6281050390348  C 7.578125 11.6281050390348  6.890625 11.5675419919565  6.1875 11.4464158977999  C 5.21875 12.1126094156612  4.1328125 12.5971137922877  2.9296875 12.8999290276792  C 2.6484375 12.9680624556423  2.3125 13.0286255027206  1.921875 13.0816181689141  L 1.88671875 13.0816181689141  C 1.80078125 13.0816181689141  1.720703125 13.051336645375  1.646484375 12.9907735982967  C 1.572265625 12.9302105512184  1.52734375 12.8507215519281  1.51171875 12.7523066004258  C 1.50390625 12.7295954577715  1.5 12.7049917198959  1.5 12.6784953867991  C 1.5 12.6519990537024  1.501953125 12.6273953158268  1.505859375 12.6046841731725  C 1.509765625 12.5819730305181  1.517578125 12.5592618878637  1.529296875 12.5365507452094  L 1.55859375 12.4797728885735  C 1.55859375 12.4797728885735  1.572265625 12.4589543411403  1.599609375 12.417317246274  C 1.626953125 12.3756801514076  1.642578125 12.3567541991956  1.646484375 12.360539389638  C 1.650390625 12.3643245800804  1.66796875 12.3453986278685  1.69921875 12.3037615330021  C 1.73046875 12.2621244381358  1.74609375 12.245091081145  1.74609375 12.2526614620298  C 1.78515625 12.2072391767211  1.875 12.1126094156612  2.015625 11.9687721788502  C 2.15625 11.8249349420393  2.2578125 11.7132718239886  2.3203125 11.6337828246984  C 2.3828125 11.5542938254081  2.470703125 11.4445233025787  2.583984375 11.3044712562101  C 2.697265625 11.1644192098415  2.794921875 11.0186893778093  2.876953125 10.8672817601136  C 2.958984375 10.7158741424178  3.0390625 10.5493257629524  3.1171875 10.3676366217175  C 2.1484375 9.82256919801278  1.38671875 9.15259048970901  0.83203125 8.35770049680625  C 0.27734375 7.56281050390348  0 6.71492784480719  0 5.81405251951739  C 0 4.76176957653182  0.3671875 3.78897563283653  1.1015625 2.89567068843151  C 1.8359375 2.00236574402649  2.837890625 1.29642772651999  4.107421875 0.777856635911995  C 5.376953125 0.259285545303998  6.7578125 0  8.25 0  C 9.7421875 0  11.123046875 0.259285545303998  12.392578125 0.777856635911995  C 13.662109375 1.29642772651999  14.6640625 2.00236574402649  15.3984375 2.89567068843151  Z M 20.12109375 6.10929737402413  C 20.70703125 6.91932812869647  21 7.78992193044713  21 8.72107877927608  C 21 9.62952448545067  20.72265625 10.4792997397682  20.16796875 11.2704045422285  C 19.61328125 12.0615093446889  18.8515625 12.7295954577715  17.8828125 13.2746628814762  C 17.9609375 13.4563520227111  18.041015625 13.6229004021765  18.123046875 13.7743080198722  C 18.205078125 13.925715637568  18.302734375 14.0714454696002  18.416015625 14.2114975159688  C 18.529296875 14.3515495623374  18.6171875 14.4613200851668  18.6796875 14.5408090844571  C 18.7421875 14.6202980837473  18.84375 14.731961201798  18.984375 14.8757984386089  C 19.125 15.0196356754199  19.21484375 15.1142654364798  19.25390625 15.1596877217885  C 19.26171875 15.1672581026733  19.27734375 15.1842914596641  19.30078125 15.2107877927608  C 19.32421875 15.2372841258576  19.341796875 15.2562100780696  19.353515625 15.2675656493967  C 19.365234375 15.2789212207239  19.380859375 15.2978471729359  19.400390625 15.3243435060326  C 19.419921875 15.3508398391294  19.43359375 15.3716583865626  19.44140625 15.3867991483322  L 19.470703125 15.4435770049681  C 19.470703125 15.4435770049681  19.478515625 15.4662881476224  19.494140625 15.5117104329312  C 19.509765625 15.5571327182399  19.51171875 15.5817364561154  19.5 15.5855216465578  C 19.48828125 15.5893068370002  19.484375 15.6139105748758  19.48828125 15.6593328601845  C 19.46484375 15.7653181925716  19.4140625 15.8485923823042  19.3359375 15.9091554293825  C 19.2578125 15.9697184764608  19.171875 15.9962148095576  19.078125 15.9886444286728  C 18.6875 15.9356517624793  18.3515625 15.875088715401  18.0703125 15.8069552874379  C 16.8671875 15.5041400520464  15.78125 15.0196356754199  14.8125 14.3534421575586  C 14.109375 14.4745682517152  13.421875 14.5351312987935  12.75 14.5351312987935  C 10.6328125 14.5351312987935  8.7890625 14.0354861603974  7.21875 13.0361958836054  C 7.671875 13.0664774071445  8.015625 13.0816181689141  8.25 13.0816181689141  C 9.5078125 13.0816181689141  10.71484375 12.9112845990064  11.87109375 12.5706174591909  C 13.02734375 12.2299503193754  14.05859375 11.7416607523066  14.96484375 11.1057487579844  C 15.94140625 10.4092737165839  16.69140625 9.60681334279631  17.21484375 8.69836763662172  C 17.73828125 7.78992193044713  18 6.82848355807901  18 5.81405251951739  C 18 5.23113319138869  17.91015625 4.65578424414478  17.73046875 4.08800567778566  C 18.73828125 4.62550272060563  19.53515625 5.29926661935179  20.12109375 6.10929737402413  Z " fill-rule="nonzero" fill="#999999" stroke="none" transform="matrix(1 0 0 1 353 171 )" />
  </g>
</svg>