<?xml version="1.0" encoding="utf-8"?>
<svg version="1.1" xmlns:xlink="http://www.w3.org/1999/xlink" width="340px" height="54px" xmlns="http://www.w3.org/2000/svg">
  <g transform="matrix(1 0 0 1 -43 -810 )">
    <path d="M 44 814  A 3 3 0 0 1 47 811 L 379 811  A 3 3 0 0 1 382 814 L 382 860  A 3 3 0 0 1 379 863 L 47 863  A 3 3 0 0 1 44 860 L 44 814  Z " fill-rule="nonzero" fill="#ffffff" stroke="none" />
    <path d="M 43.5 814  A 3.5 3.5 0 0 1 47 810.5 L 379 810.5  A 3.5 3.5 0 0 1 382.5 814 L 382.5 860  A 3.5 3.5 0 0 1 379 863.5 L 47 863.5  A 3.5 3.5 0 0 1 43.5 860 L 43.5 814  Z " stroke-width="1" stroke-dasharray="9,4" stroke="#d9d9d9" fill="none" stroke-dashoffset="0.5" />
  </g>
</svg>