<?xml version="1.0" encoding="utf-8"?>
<svg version="1.1" xmlns:xlink="http://www.w3.org/1999/xlink" width="357px" height="478px" xmlns="http://www.w3.org/2000/svg">
  <g transform="matrix(1 0 0 1 -34 -150 )">
    <path d="M 34 150  L 391 150  L 391 628  L 34 628  L 34 150  " fill-rule="nonzero" fill="#cccccc" stroke="none" />
    <path d="M 59 175  L 366 175  L 366 603  L 59 603  L 59 175  " fill-rule="nonzero" fill="#ffffff" stroke="none" />
    <path d="M 246.415 275.25  C 231.421 275.25  219.64 263.469  219.64 248.475  C 219.64 233.481  231.421 221.7  246.415 221.7  C 261.409 221.7  273.19 233.481  273.19 248.475  C 273.19 263.469  261.409 275.25  246.415 275.25  " fill-rule="nonzero" fill="#cccccc" stroke="none" />
    <path d="M 68 594  L 68 368.5  L 140.25 266  L 241.4 348  L 299.2 327.5  L 357 348  L 357 594  L 68 594  " fill-rule="nonzero" fill="#169bd5" stroke="none" />
  </g>
</svg>