<?xml version="1.0" encoding="utf-8"?>
<svg version="1.1" xmlns:xlink="http://www.w3.org/1999/xlink" width="339px" height="447px" xmlns="http://www.w3.org/2000/svg">
  <g transform="matrix(1 0 0 1 -43 -160 )">
    <path d="M 44 168  A 7 7 0 0 1 51 161 L 374 161  A 7 7 0 0 1 381 168 L 381 599  A 7 7 0 0 1 374 606 L 51 606  A 7 7 0 0 1 44 599 L 44 168  Z " fill-rule="nonzero" fill="#ffffff" stroke="none" />
    <path d="M 43.5 168  A 7.5 7.5 0 0 1 51 160.5 L 374 160.5  A 7.5 7.5 0 0 1 381.5 168 L 381.5 599  A 7.5 7.5 0 0 1 374 606.5 L 51 606.5  A 7.5 7.5 0 0 1 43.5 599 L 43.5 168  Z " stroke-width="1" stroke="#d5d5d5" fill="none" stroke-opacity="0.996078431372549" />
  </g>
</svg>