<?xml version="1.0" encoding="utf-8"?>
<svg version="1.1" xmlns:xlink="http://www.w3.org/1999/xlink" width="33px" height="33px" xmlns="http://www.w3.org/2000/svg">
  <g transform="matrix(1 0 0 1 -196 -648 )">
    <path d="M 24.27734375 22.34375  C 24.5494791666667 22.0716145833333  24.685546875 21.7421875  24.685546875 21.35546875  C 24.685546875 20.9830729166667  24.5494791666667 20.6608072916667  24.27734375 20.388671875  L 20.388671875 16.5  L 24.27734375 12.611328125  C 24.5494791666667 12.3391927083333  24.685546875 12.0169270833333  24.685546875 11.64453125  C 24.685546875 11.2578125  24.5494791666667 10.9283854166667  24.27734375 10.65625  L 22.34375 8.72265625  C 22.0716145833333 8.45052083333333  21.7421875 8.314453125  21.35546875 8.314453125  C 20.9830729166667 8.314453125  20.6608072916667 8.45052083333333  20.388671875 8.72265625  L 16.5 12.611328125  L 12.611328125 8.72265625  C 12.3391927083333 8.45052083333333  12.0169270833333 8.314453125  11.64453125 8.314453125  C 11.2578125 8.314453125  10.9283854166667 8.45052083333333  10.65625 8.72265625  L 8.72265625 10.65625  C 8.45052083333333 10.9283854166667  8.314453125 11.2578125  8.314453125 11.64453125  C 8.314453125 12.0169270833333  8.45052083333333 12.3391927083333  8.72265625 12.611328125  L 12.611328125 16.5  L 8.72265625 20.388671875  C 8.45052083333333 20.6608072916667  8.314453125 20.9830729166667  8.314453125 21.35546875  C 8.314453125 21.7421875  8.45052083333333 22.0716145833333  8.72265625 22.34375  L 10.65625 24.27734375  C 10.9283854166667 24.5494791666667  11.2578125 24.685546875  11.64453125 24.685546875  C 12.0169270833333 24.685546875  12.3391927083333 24.5494791666667  12.611328125 24.27734375  L 16.5 20.388671875  L 20.388671875 24.27734375  C 20.6608072916667 24.5494791666667  20.9830729166667 24.685546875  21.35546875 24.685546875  C 21.7421875 24.685546875  22.0716145833333 24.5494791666667  22.34375 24.27734375  L 24.27734375 22.34375  Z M 30.787109375 8.2177734375  C 32.2623697916667 10.7457682291667  33 13.5065104166667  33 16.5  C 33 19.4934895833333  32.2623697916667 22.2542317708333  30.787109375 24.7822265625  C 29.3118489583333 27.3102213541667  27.3102213541667 29.3118489583333  24.7822265625 30.787109375  C 22.2542317708333 32.2623697916667  19.4934895833333 33  16.5 33  C 13.5065104166667 33  10.7457682291667 32.2623697916667  8.2177734375 30.787109375  C 5.68977864583333 29.3118489583333  3.68815104166667 27.3102213541667  2.212890625 24.7822265625  C 0.737630208333333 22.2542317708333  0 19.4934895833333  0 16.5  C 0 13.5065104166667  0.737630208333333 10.7457682291667  2.212890625 8.2177734375  C 3.68815104166667 5.68977864583333  5.68977864583333 3.68815104166666  8.2177734375 2.212890625  C 10.7457682291667 0.73763020833333  13.5065104166667 0  16.5 0  C 19.4934895833333 0  22.2542317708333 0.73763020833333  24.7822265625 2.212890625  C 27.3102213541667 3.68815104166666  29.3118489583333 5.68977864583333  30.787109375 8.2177734375  Z " fill-rule="nonzero" fill="#ffffff" stroke="none" fill-opacity="0.8" transform="matrix(1 0 0 1 196 648 )" />
  </g>
</svg>