<?xml version="1.0" encoding="utf-8"?>
<svg version="1.1" xmlns:xlink="http://www.w3.org/1999/xlink" width="375px" height="531px" xmlns="http://www.w3.org/2000/svg">
  <g transform="matrix(1 0 0 1 -25 -173 )">
    <path d="M 25 173  L 400 173  L 400 704  L 25 704  L 25 173  " fill-rule="nonzero" fill="#cccccc" stroke="none" />
    <path d="M 51 199  L 374 199  L 374 678  L 51 678  L 51 199  " fill-rule="nonzero" fill="#ffffff" stroke="none" />
    <path d="M 248.125 308.9  C 232.375 308.9  220 296.525  220 280.775  C 220 265.025  232.375 252.65  248.125 252.65  C 263.875 252.65  276.25 265.025  276.25 280.775  C 276.25 296.525  263.875 308.9  248.125 308.9  " fill-rule="nonzero" fill="#cccccc" stroke="none" />
    <path d="M 61 669  L 61 416  L 137 301  L 243.4 393  L 304.2 370  L 365 393  L 365 669  L 61 669  " fill-rule="nonzero" fill="#169bd5" stroke="none" />
  </g>
</svg>