<?xml version="1.0" encoding="utf-8"?>
<svg version="1.1" xmlns:xlink="http://www.w3.org/1999/xlink" width="19px" height="14px" xmlns="http://www.w3.org/2000/svg">
  <g transform="matrix(1 0 0 1 -368 -111 )">
    <path d="M 8.020263671875 10.732421875  C 8.215087890625 10.4984809027778  8.3125 10.2144097222222  8.3125 9.88020833333333  C 8.3125 9.55208333333333  8.289306640625 9.24674479166667  8.242919921875 8.96419270833333  C 8.196533203125 8.681640625  8.12076822916667 8.408203125  8.015625 8.14388020833333  C 7.91048177083333 7.87955729166667  7.75276692708333 7.67144097222222  7.54248046875 7.51953125  C 7.33219401041667 7.36762152777778  7.08170572916667 7.29166666666667  6.791015625 7.29166666666667  C 6.39518229166667 7.68055555555556  5.91276041666667 7.875  5.34375 7.875  C 4.77473958333333 7.875  4.29231770833333 7.68055555555556  3.896484375 7.29166666666667  C 3.60579427083333 7.29166666666667  3.35530598958333 7.36762152777778  3.14501953125 7.51953125  C 2.93473307291667 7.67144097222222  2.77701822916667 7.87955729166667  2.671875 8.14388020833333  C 2.56673177083333 8.408203125  2.490966796875 8.681640625  2.444580078125 8.96419270833333  C 2.398193359375 9.24674479166667  2.375 9.55208333333333  2.375 9.88020833333333  C 2.375 10.2144097222222  2.472412109375 10.4984809027778  2.667236328125 10.732421875  C 2.862060546875 10.9663628472222  3.09554036458333 11.0833333333333  3.36767578125 11.0833333333333  L 7.31982421875 11.0833333333333  C 7.59195963541667 11.0833333333333  7.825439453125 10.9663628472222  8.020263671875 10.732421875  Z M 6.60546875 7.07291666666667  C 6.95182291666667 6.73263888888889  7.125 6.31944444444444  7.125 5.83333333333333  C 7.125 5.34722222222222  6.95182291666667 4.93402777777778  6.60546875 4.59375  C 6.25911458333333 4.25347222222222  5.83854166666667 4.08333333333333  5.34375 4.08333333333333  C 4.84895833333333 4.08333333333333  4.42838541666667 4.25347222222222  4.08203125 4.59375  C 3.73567708333333 4.93402777777778  3.5625 5.34722222222222  3.5625 5.83333333333333  C 3.5625 6.31944444444444  3.73567708333333 6.73263888888889  4.08203125 7.07291666666667  C 4.42838541666667 7.41319444444444  4.84895833333333 7.58333333333333  5.34375 7.58333333333333  C 5.83854166666667 7.58333333333333  6.25911458333333 7.41319444444444  6.60546875 7.07291666666667  Z M 16.54150390625 10.41796875  C 16.59716796875 10.36328125  16.625 10.2934027777778  16.625 10.2083333333333  L 16.625 9.625  C 16.625 9.53993055555555  16.59716796875 9.47005208333333  16.54150390625 9.41536458333333  C 16.48583984375 9.36067708333333  16.4147135416667 9.33333333333333  16.328125 9.33333333333333  L 9.796875 9.33333333333333  C 9.71028645833333 9.33333333333333  9.63916015625 9.36067708333333  9.58349609375 9.41536458333333  C 9.52783203125 9.47005208333333  9.5 9.53993055555555  9.5 9.625  L 9.5 10.2083333333333  C 9.5 10.2934027777778  9.52783203125 10.36328125  9.58349609375 10.41796875  C 9.63916015625 10.47265625  9.71028645833333 10.5  9.796875 10.5  L 16.328125 10.5  C 16.4147135416667 10.5  16.48583984375 10.47265625  16.54150390625 10.41796875  Z M 12.97900390625 8.08463541666667  C 13.03466796875 8.02994791666667  13.0625 7.96006944444444  13.0625 7.875  L 13.0625 7.29166666666667  C 13.0625 7.20659722222222  13.03466796875 7.13671875  12.97900390625 7.08203125  C 12.92333984375 7.02734375  12.8522135416667 7  12.765625 7  L 9.796875 7  C 9.71028645833333 7  9.63916015625 7.02734375  9.58349609375 7.08203125  C 9.52783203125 7.13671875  9.5 7.20659722222222  9.5 7.29166666666667  L 9.5 7.875  C 9.5 7.96006944444444  9.52783203125 8.02994791666667  9.58349609375 8.08463541666667  C 9.63916015625 8.13932291666667  9.71028645833333 8.16666666666667  9.796875 8.16666666666667  L 12.765625 8.16666666666667  C 12.8522135416667 8.16666666666667  12.92333984375 8.13932291666667  12.97900390625 8.08463541666667  Z M 16.54150390625 8.08463541666667  C 16.59716796875 8.02994791666667  16.625 7.96006944444444  16.625 7.875  L 16.625 7.29166666666667  C 16.625 7.20659722222222  16.59716796875 7.13671875  16.54150390625 7.08203125  C 16.48583984375 7.02734375  16.4147135416667 7  16.328125 7  L 14.546875 7  C 14.4602864583333 7  14.38916015625 7.02734375  14.33349609375 7.08203125  C 14.27783203125 7.13671875  14.25 7.20659722222222  14.25 7.29166666666667  L 14.25 7.875  C 14.25 7.96006944444444  14.27783203125 8.02994791666667  14.33349609375 8.08463541666667  C 14.38916015625 8.13932291666667  14.4602864583333 8.16666666666667  14.546875 8.16666666666667  L 16.328125 8.16666666666667  C 16.4147135416667 8.16666666666667  16.48583984375 8.13932291666667  16.54150390625 8.08463541666667  Z M 16.54150390625 5.75130208333333  C 16.59716796875 5.69661458333333  16.625 5.62673611111111  16.625 5.54166666666667  L 16.625 4.95833333333333  C 16.625 4.87326388888889  16.59716796875 4.80338541666667  16.54150390625 4.74869791666667  C 16.48583984375 4.69401041666667  16.4147135416667 4.66666666666667  16.328125 4.66666666666667  L 9.796875 4.66666666666667  C 9.71028645833333 4.66666666666667  9.63916015625 4.69401041666667  9.58349609375 4.74869791666667  C 9.52783203125 4.80338541666667  9.5 4.87326388888889  9.5 4.95833333333333  L 9.5 5.54166666666667  C 9.5 5.62673611111111  9.52783203125 5.69661458333333  9.58349609375 5.75130208333333  C 9.63916015625 5.80598958333333  9.71028645833333 5.83333333333333  9.796875 5.83333333333333  L 16.328125 5.83333333333333  C 16.4147135416667 5.83333333333333  16.48583984375 5.80598958333333  16.54150390625 5.75130208333333  Z M 1.1875 1.45833333333333  L 1.1875 2.33333333333333  L 17.8125 2.33333333333333  L 17.8125 1.45833333333333  C 17.8125 1.37326388888889  17.78466796875 1.30338541666667  17.72900390625 1.24869791666667  C 17.67333984375 1.19401041666667  17.6022135416667 1.16666666666667  17.515625 1.16666666666667  L 1.484375 1.16666666666667  C 1.39778645833333 1.16666666666667  1.32666015625 1.19401041666667  1.27099609375 1.24869791666667  C 1.21533203125 1.30338541666667  1.1875 1.37326388888889  1.1875 1.45833333333333  Z M 18.56396484375 0.428385416666667  C 18.8546549479167 0.713975694444444  19 1.05729166666667  19 1.45833333333333  L 19 12.5416666666667  C 19 12.9427083333333  18.8546549479167 13.2860243055556  18.56396484375 13.5716145833333  C 18.2732747395833 13.8572048611111  17.923828125 14  17.515625 14  L 1.484375 14  C 1.076171875 14  0.726725260416667 13.8572048611111  0.43603515625 13.5716145833333  C 0.145345052083333 13.2860243055556  0 12.9427083333333  0 12.5416666666667  L 0 1.45833333333333  C 0 1.05729166666667  0.145345052083333 0.713975694444444  0.43603515625 0.428385416666667  C 0.726725260416667 0.142795138888888  1.076171875 0  1.484375 0  L 17.515625 0  C 17.923828125 0  18.2732747395833 0.142795138888888  18.56396484375 0.428385416666667  Z " fill-rule="nonzero" fill="#666666" stroke="none" transform="matrix(1 0 0 1 368 111 )" />
  </g>
</svg>