<?xml version="1.0" encoding="utf-8"?>
<svg version="1.1" xmlns:xlink="http://www.w3.org/1999/xlink" width="19px" height="27px" xmlns="http://www.w3.org/2000/svg">
  <g transform="matrix(1 0 0 1 -40 -699 )">
    <path d="M 18.6866319444444 10.6929086538462  C 18.8955439814815 10.8984375  19 11.1418269230769  19 11.4230769230769  L 19 13.5  C 19 15.890625  18.1890914351852 17.9702524038462  16.5672743055556 19.7388822115385  C 14.9454571759259 21.5075120192308  12.9415509259259 22.5216346153846  10.5555555555556 22.78125  L 10.5555555555556 24.9230769230769  L 14.7777777777778 24.9230769230769  C 15.0636574074074 24.9230769230769  15.3110532407407 25.0258413461538  15.5199652777778 25.2313701923077  C 15.7288773148148 25.4368990384615  15.8333333333333 25.6802884615385  15.8333333333333 25.9615384615385  C 15.8333333333333 26.2427884615385  15.7288773148148 26.4861778846154  15.5199652777778 26.6917067307692  C 15.3110532407407 26.8972355769231  15.0636574074074 27  14.7777777777778 27  L 4.22222222222222 27  C 3.93634259259259 27  3.68894675925926 26.8972355769231  3.48003472222222 26.6917067307692  C 3.27112268518518 26.4861778846154  3.16666666666667 26.2427884615385  3.16666666666667 25.9615384615385  C 3.16666666666667 25.6802884615385  3.27112268518518 25.4368990384615  3.48003472222222 25.2313701923077  C 3.68894675925926 25.0258413461538  3.93634259259259 24.9230769230769  4.22222222222222 24.9230769230769  L 8.44444444444444 24.9230769230769  L 8.44444444444444 22.78125  C 6.05844907407407 22.5216346153846  4.05454282407407 21.5075120192308  2.43272569444444 19.7388822115385  C 0.810908564814815 17.9702524038462  0 15.890625  0 13.5  L 0 11.4230769230769  C 0 11.1418269230769  0.104456018518519 10.8984375  0.313368055555556 10.6929086538462  C 0.522280092592593 10.4873798076923  0.769675925925926 10.3846153846154  1.05555555555556 10.3846153846154  C 1.34143518518519 10.3846153846154  1.58883101851852 10.4873798076923  1.79774305555556 10.6929086538462  C 2.00665509259259 10.8984375  2.11111111111111 11.1418269230769  2.11111111111111 11.4230769230769  L 2.11111111111111 13.5  C 2.11111111111111 15.5012019230769  2.83405671296296 17.2130408653846  4.27994791666667 18.6355168269231  C 5.72583912037037 20.0579927884615  7.46585648148148 20.7692307692308  9.5 20.7692307692308  C 11.5341435185185 20.7692307692308  13.2741608796296 20.0579927884615  14.7200520833333 18.6355168269231  C 16.165943287037 17.2130408653846  16.8888888888889 15.5012019230769  16.8888888888889 13.5  L 16.8888888888889 11.4230769230769  C 16.8888888888889 11.1418269230769  16.9933449074074 10.8984375  17.2022569444444 10.6929086538462  C 17.4111689814815 10.4873798076923  17.6585648148148 10.3846153846154  17.9444444444444 10.3846153846154  C 18.2303240740741 10.3846153846154  18.4777199074074 10.4873798076923  18.6866319444444 10.6929086538462  Z M 13.2274305555556 1.52524038461538  C 14.2609953703704 2.54206730769231  14.7777777777778 3.76442307692308  14.7777777777778 5.19230769230769  L 14.7777777777778 13.5  C 14.7777777777778 14.9278846153846  14.2609953703704 16.1502403846154  13.2274305555556 17.1670673076923  C 12.1938657407407 18.1838942307692  10.9513888888889 18.6923076923077  9.5 18.6923076923077  C 8.04861111111111 18.6923076923077  6.80613425925926 18.1838942307692  5.77256944444444 17.1670673076923  C 4.73900462962963 16.1502403846154  4.22222222222222 14.9278846153846  4.22222222222222 13.5  L 4.22222222222222 5.19230769230769  C 4.22222222222222 3.76442307692308  4.73900462962963 2.54206730769231  5.77256944444444 1.52524038461538  C 6.80613425925926 0.508413461538464  8.04861111111111 0  9.5 0  C 10.9513888888889 0  12.1938657407407 0.508413461538464  13.2274305555556 1.52524038461538  Z " fill-rule="nonzero" fill="#959595" stroke="none" transform="matrix(1 0 0 1 40 699 )" />
  </g>
</svg>