<?xml version="1.0" encoding="utf-8"?>
<svg version="1.1" xmlns:xlink="http://www.w3.org/1999/xlink" width="27px" height="27px" xmlns="http://www.w3.org/2000/svg">
  <g transform="matrix(1 0 0 1 -322 -699 )">
    <path d="M 26.0362520914668 0  C 26.2370329057446 0  26.4177356385945 0.0552455357142881  26.5783602900167 0.165736607142858  C 26.909648633575 0.406808035714286  27.0451756832125 0.728236607142856  26.9849414389292 1.13002232142857  L 23.1299498047964 24.2728794642857  C 23.079754601227 24.5641741071429  22.9191299498048 24.7901785714286  22.6480758505298 24.9508928571429  C 22.5075292805354 25.03125  22.3519241494702 25.0714285714286  22.1812604573341 25.0714285714286  C 22.0708310094813 25.0714285714286  21.9503625209147 25.0463169642857  21.8198549916341 24.99609375  L 14.9983268265477 22.2087053571429  L 11.3541550474066 26.6534598214286  C 11.1734523145566 26.8844866071429  10.9274958170664 27  10.6162855549359 27  C 10.4857780256553 27  10.3753485778026 26.9799107142857  10.2849972113776 26.9397321428571  C 10.0942554378137 26.8694196428571  9.94116006692694 26.7513950892857  9.82571109871723 26.5856584821429  C 9.71026213050753 26.419921875  9.65253764640268 26.2366071428571  9.65253764640268 26.0357142857143  L 9.65253764640268 20.77734375  L 22.6631344116007 4.82142857142857  L 6.56553262688232 18.7583705357143  L 0.617401003904071 16.3175223214286  C 0.24595649749024 16.1768973214286  0.045175683212493 15.9006696428571  0.015058561070831 15.4888392857143  C -0.00501952035694367 15.0870535714286  0.155605131065254 14.7907366071429  0.496932515337423 14.5998883928571  L 25.5543781372002 0.135602678571428  C 25.7049637479085 0.0452008928571416  25.8655883993307 0  26.0362520914668 0  Z " fill-rule="nonzero" fill="#959595" stroke="none" transform="matrix(1 0 0 1 322 699 )" />
  </g>
</svg>