<?xml version="1.0" encoding="utf-8"?>
<svg version="1.1" xmlns:xlink="http://www.w3.org/1999/xlink" width="23px" height="18px" xmlns="http://www.w3.org/2000/svg">
  <g transform="matrix(1 0 0 1 -359 -109 )">
    <path d="M 9.708740234375 13.798828125  C 9.944580078125 13.498046875  10.0625 13.1328125  10.0625 12.703125  C 10.0625 12.28125  10.034423828125 11.888671875  9.978271484375 11.525390625  C 9.922119140625 11.162109375  9.83040364583333 10.810546875  9.703125 10.470703125  C 9.57584635416667 10.130859375  9.38492838541667 9.86328125  9.13037109375 9.66796875  C 8.87581380208333 9.47265625  8.57259114583333 9.375  8.220703125 9.375  C 7.74153645833333 9.875  7.15755208333333 10.125  6.46875 10.125  C 5.77994791666667 10.125  5.19596354166667 9.875  4.716796875 9.375  C 4.36490885416667 9.375  4.06168619791667 9.47265625  3.80712890625 9.66796875  C 3.55257161458333 9.86328125  3.36165364583333 10.130859375  3.234375 10.470703125  C 3.10709635416667 10.810546875  3.015380859375 11.162109375  2.959228515625 11.525390625  C 2.903076171875 11.888671875  2.875 12.28125  2.875 12.703125  C 2.875 13.1328125  2.992919921875 13.498046875  3.228759765625 13.798828125  C 3.464599609375 14.099609375  3.74723307291667 14.25  4.07666015625 14.25  L 8.86083984375 14.25  C 9.19026692708333 14.25  9.472900390625 14.099609375  9.708740234375 13.798828125  Z M 7.99609375 9.09375  C 8.41536458333333 8.65625  8.625 8.125  8.625 7.5  C 8.625 6.875  8.41536458333333 6.34375  7.99609375 5.90625  C 7.57682291666667 5.46875  7.06770833333333 5.25  6.46875 5.25  C 5.86979166666667 5.25  5.36067708333333 5.46875  4.94140625 5.90625  C 4.52213541666667 6.34375  4.3125 6.875  4.3125 7.5  C 4.3125 8.125  4.52213541666667 8.65625  4.94140625 9.09375  C 5.36067708333333 9.53125  5.86979166666667 9.75  6.46875 9.75  C 7.06770833333333 9.75  7.57682291666667 9.53125  7.99609375 9.09375  Z M 20.02392578125 13.39453125  C 20.09130859375 13.32421875  20.125 13.234375  20.125 13.125  L 20.125 12.375  C 20.125 12.265625  20.09130859375 12.17578125  20.02392578125 12.10546875  C 19.95654296875 12.03515625  19.8704427083333 12  19.765625 12  L 11.859375 12  C 11.7545572916667 12  11.66845703125 12.03515625  11.60107421875 12.10546875  C 11.53369140625 12.17578125  11.5 12.265625  11.5 12.375  L 11.5 13.125  C 11.5 13.234375  11.53369140625 13.32421875  11.60107421875 13.39453125  C 11.66845703125 13.46484375  11.7545572916667 13.5  11.859375 13.5  L 19.765625 13.5  C 19.8704427083333 13.5  19.95654296875 13.46484375  20.02392578125 13.39453125  Z M 15.71142578125 10.39453125  C 15.77880859375 10.32421875  15.8125 10.234375  15.8125 10.125  L 15.8125 9.375  C 15.8125 9.265625  15.77880859375 9.17578125  15.71142578125 9.10546875  C 15.64404296875 9.03515625  15.5579427083333 9  15.453125 9  L 11.859375 9  C 11.7545572916667 9  11.66845703125 9.03515625  11.60107421875 9.10546875  C 11.53369140625 9.17578125  11.5 9.265625  11.5 9.375  L 11.5 10.125  C 11.5 10.234375  11.53369140625 10.32421875  11.60107421875 10.39453125  C 11.66845703125 10.46484375  11.7545572916667 10.5  11.859375 10.5  L 15.453125 10.5  C 15.5579427083333 10.5  15.64404296875 10.46484375  15.71142578125 10.39453125  Z M 20.02392578125 10.39453125  C 20.09130859375 10.32421875  20.125 10.234375  20.125 10.125  L 20.125 9.375  C 20.125 9.265625  20.09130859375 9.17578125  20.02392578125 9.10546875  C 19.95654296875 9.03515625  19.8704427083333 9  19.765625 9  L 17.609375 9  C 17.5045572916667 9  17.41845703125 9.03515625  17.35107421875 9.10546875  C 17.28369140625 9.17578125  17.25 9.265625  17.25 9.375  L 17.25 10.125  C 17.25 10.234375  17.28369140625 10.32421875  17.35107421875 10.39453125  C 17.41845703125 10.46484375  17.5045572916667 10.5  17.609375 10.5  L 19.765625 10.5  C 19.8704427083333 10.5  19.95654296875 10.46484375  20.02392578125 10.39453125  Z M 20.02392578125 7.39453125  C 20.09130859375 7.32421875  20.125 7.234375  20.125 7.125  L 20.125 6.375  C 20.125 6.265625  20.09130859375 6.17578125  20.02392578125 6.10546875  C 19.95654296875 6.03515625  19.8704427083333 6  19.765625 6  L 11.859375 6  C 11.7545572916667 6  11.66845703125 6.03515625  11.60107421875 6.10546875  C 11.53369140625 6.17578125  11.5 6.265625  11.5 6.375  L 11.5 7.125  C 11.5 7.234375  11.53369140625 7.32421875  11.60107421875 7.39453125  C 11.66845703125 7.46484375  11.7545572916667 7.5  11.859375 7.5  L 19.765625 7.5  C 19.8704427083333 7.5  19.95654296875 7.46484375  20.02392578125 7.39453125  Z M 1.4375 1.875  L 1.4375 3  L 21.5625 3  L 21.5625 1.875  C 21.5625 1.765625  21.52880859375 1.67578125  21.46142578125 1.60546875  C 21.39404296875 1.53515625  21.3079427083333 1.5  21.203125 1.5  L 1.796875 1.5  C 1.69205729166667 1.5  1.60595703125 1.53515625  1.53857421875 1.60546875  C 1.47119140625 1.67578125  1.4375 1.765625  1.4375 1.875  Z M 22.47216796875 0.550781250000001  C 22.8240559895833 0.917968749999999  23 1.359375  23 1.875  L 23 16.125  C 23 16.640625  22.8240559895833 17.08203125  22.47216796875 17.44921875  C 22.1202799479167 17.81640625  21.697265625 18  21.203125 18  L 1.796875 18  C 1.302734375 18  0.879720052083333 17.81640625  0.52783203125 17.44921875  C 0.175944010416667 17.08203125  0 16.640625  0 16.125  L 0 1.875  C 0 1.359375  0.175944010416667 0.917968749999999  0.52783203125 0.550781250000001  C 0.879720052083333 0.183593749999998  1.302734375 0  1.796875 0  L 21.203125 0  C 21.697265625 0  22.1202799479167 0.183593749999998  22.47216796875 0.550781250000001  Z " fill-rule="nonzero" fill="#b0b0b0" stroke="none" transform="matrix(1 0 0 1 359 109 )" />
  </g>
</svg>