<?xml version="1.0" encoding="utf-8"?>
<svg version="1.1" xmlns:xlink="http://www.w3.org/1999/xlink" width="13px" height="13px" xmlns="http://www.w3.org/2000/svg">
  <g transform="matrix(1 0 0 1 -195 -176 )">
    <path d="M 8.9375 0  L 12.4583333333333 0  C 12.6050347222222 0  12.7319878472222 0.0536024305555549  12.8391927083333 0.160807291666666  C 12.9463975694444 0.268012152777776  13 0.394965277777776  13 0.541666666666666  L 13 4.0625  C 13 4.14149305555556  12.974609375 4.20638020833333  12.923828125 4.25716145833333  C 12.873046875 4.30794270833333  12.8081597222222 4.33333333333333  12.7291666666667 4.33333333333333  L 12.1875 4.33333333333333  C 12.1085069444444 4.33333333333333  12.0436197916667 4.30794270833333  11.9928385416667 4.25716145833333  C 11.9420572916667 4.20638020833333  11.9166666666667 4.14149305555556  11.9166666666667 4.0625  L 11.9166666666667 1.84505208333333  L 8.68359375 5.08658854166667  C 9.39453125 5.966796875  9.75 6.97960069444444  9.75 8.125  C 9.75 8.78515625  9.62163628472222 9.41569010416667  9.36490885416667 10.0166015625  C 9.10818142361111 10.6175130208333  8.76117621527778 11.1366102430556  8.32389322916667 11.5738932291667  C 7.88661024305556 12.0111762152778  7.36751302083333 12.3581814236111  6.7666015625 12.6149088541667  C 6.16569010416667 12.8716362847222  5.53515625 13  4.875 13  C 4.21484375 13  3.58430989583333 12.8716362847222  2.9833984375 12.6149088541667  C 2.38248697916667 12.3581814236111  1.86338975694444 12.0111762152778  1.42610677083333 11.5738932291667  C 0.988823784722222 11.1366102430556  0.641818576388889 10.6175130208333  0.385091145833333 10.0166015625  C 0.128363715277778 9.41569010416667  0 8.78515625  0 8.125  C 0 7.46484375  0.128363715277778 6.83430989583333  0.385091145833333 6.2333984375  C 0.641818576388889 5.63248697916667  0.988823784722222 5.11338975694444  1.42610677083333 4.67610677083333  C 1.86338975694444 4.23882378472222  2.38248697916667 3.89181857638889  2.9833984375 3.63509114583333  C 3.58430989583333 3.37836371527778  4.21484375 3.25  4.875 3.25  C 6.02039930555556 3.25  7.033203125 3.60546875  7.91341145833333 4.31640625  L 11.146484375 1.08333333333333  L 8.9375 1.08333333333333  C 8.85850694444444 1.08333333333333  8.79361979166667 1.05794270833333  8.74283854166667 1.00716145833333  C 8.69205729166667 0.956380208333334  8.66666666666667 0.891493055555555  8.66666666666667 0.8125  L 8.66666666666667 0.270833333333334  C 8.66666666666667 0.191840277777776  8.69205729166667 0.126953125  8.74283854166667 0.076171875  C 8.79361979166667 0.025390625  8.85850694444444 0  8.9375 0  Z M 2.1962890625 10.8037109375  C 2.93825954861111 11.5456814236111  3.83116319444444 11.9166666666667  4.875 11.9166666666667  C 5.91883680555556 11.9166666666667  6.81174045138889 11.5456814236111  7.5537109375 10.8037109375  C 8.29568142361111 10.0617404513889  8.66666666666667 9.16883680555556  8.66666666666667 8.125  C 8.66666666666667 7.08116319444444  8.29568142361111 6.18825954861111  7.5537109375 5.4462890625  C 6.81174045138889 4.70431857638889  5.91883680555556 4.33333333333333  4.875 4.33333333333333  C 3.83116319444444 4.33333333333333  2.93825954861111 4.70431857638889  2.1962890625 5.4462890625  C 1.45431857638889 6.18825954861111  1.08333333333333 7.08116319444444  1.08333333333333 8.125  C 1.08333333333333 9.16883680555556  1.45431857638889 10.0617404513889  2.1962890625 10.8037109375  Z " fill-rule="nonzero" fill="#29a1f7" stroke="none" transform="matrix(1 0 0 1 195 176 )" />
  </g>
</svg>