<?xml version="1.0" encoding="utf-8"?>
<svg version="1.1" xmlns:xlink="http://www.w3.org/1999/xlink" width="32px" height="34px" xmlns="http://www.w3.org/2000/svg">
  <g transform="matrix(1 0 0 1 -317 -368 )">
    <path d="M 317 368  L 349 368  L 349 402  L 317 402  L 317 368  " fill-rule="nonzero" fill="#cccccc" stroke="none" />
    <path d="M 319 370  L 347 370  L 347 400  L 319 400  L 319 370  " fill-rule="nonzero" fill="#ffffff" stroke="none" />
    <path d="M 336.04 377.9  C 334.696 377.9  333.64 376.844  333.64 375.5  C 333.64 374.156  334.696 373.1  336.04 373.1  C 337.384 373.1  338.44 374.156  338.44 375.5  C 338.44 376.844  337.384 377.9  336.04 377.9  " fill-rule="nonzero" fill="#cccccc" stroke="none" />
    <path d="M 320 399  L 320 383.6  L 326.5 376.6  L 335.6 382.2  L 340.8 380.8  L 346 382.2  L 346 399  L 320 399  " fill-rule="nonzero" fill="#169bd5" stroke="none" />
  </g>
</svg>