<?xml version="1.0" encoding="utf-8"?>
<svg version="1.1" xmlns:xlink="http://www.w3.org/1999/xlink" width="339px" height="447px" xmlns="http://www.w3.org/2000/svg">
  <g transform="matrix(1 0 0 1 -43 -201 )">
    <path d="M 44 209  A 7 7 0 0 1 51 202 L 374 202  A 7 7 0 0 1 381 209 L 381 640  A 7 7 0 0 1 374 647 L 51 647  A 7 7 0 0 1 44 640 L 44 209  Z " fill-rule="nonzero" fill="#ffffff" stroke="none" />
    <path d="M 43.5 209  A 7.5 7.5 0 0 1 51 201.5 L 374 201.5  A 7.5 7.5 0 0 1 381.5 209 L 381.5 640  A 7.5 7.5 0 0 1 374 647.5 L 51 647.5  A 7.5 7.5 0 0 1 43.5 640 L 43.5 209  Z " stroke-width="1" stroke="#d5d5d5" fill="none" stroke-opacity="0.996078431372549" />
  </g>
</svg>